<?xml version="1.0" standalone="no"?>
<!DOCTYPE svg PUBLIC "-//W3C//DTD SVG 20010904//EN"
 "http://www.w3.org/TR/2001/REC-SVG-20010904/DTD/svg10.dtd">
<svg version="1.0" xmlns="http://www.w3.org/2000/svg"
 width="860.000000pt" height="860.000000pt" viewBox="0 0 860.000000 860.000000"
 preserveAspectRatio="xMidYMid meet">
<metadata>
Created by potrace 1.11, written by Peter Selinger 2001-2013
</metadata>
<g transform="translate(0.000000,860.000000) scale(0.100000,-0.100000)"
fill="#000000" stroke="none">
<path d="M1832 7170 c-1 -18 32 -66 118 -170 76 -93 115 -147 107 -151 -7 -4
-36 -10 -64 -14 -29 -4 -53 -9 -53 -11 0 -3 17 -34 38 -70 l37 -66 60 7 c33 4
71 9 85 12 22 4 35 -8 104 -93 44 -53 79 -103 79 -111 0 -15 28 -14 34 2 2 6
-33 53 -77 105 -44 52 -80 98 -80 101 0 17 1051 133 1065 117 1 -2 -3 -41 -11
-88 -29 -188 -39 -485 -25 -747 7 -137 15 -275 18 -308 l5 -60 -69 -27 c-113
-46 -193 -99 -284 -188 -101 -100 -173 -212 -215 -334 l-29 -85 -70 -22 c-338
-102 -598 -375 -692 -727 -23 -84 -26 -118 -27 -252 0 -127 3 -170 21 -240 76
-301 275 -551 548 -688 53 -26 66 -39 109 -108 94 -148 259 -286 425 -355 162
-68 369 -87 546 -50 50 10 91 18 91 17 1 0 -5 -109 -13 -241 l-15 -240 91
-516 c50 -284 91 -521 91 -527 0 -6 -28 3 -62 20 -88 45 -185 50 -259 16 -30
-14 -74 -45 -98 -69 -49 -50 -91 -130 -84 -160 19 -70 234 -64 541 15 52 13
96 26 98 29 3 3 -28 273 -68 600 l-74 595 52 286 c28 157 53 289 56 292 3 3
33 -6 67 -21 201 -84 433 -94 658 -29 47 13 87 23 88 22 1 -2 -6 -124 -15
-273 l-17 -270 88 -510 c49 -280 91 -520 94 -532 5 -21 3 -21 -62 10 -60 28
-78 32 -153 32 -74 0 -91 -3 -131 -27 -76 -44 -159 -152 -159 -206 0 -82 208
-82 529 -1 62 15 115 30 116 31 1 2 -31 269 -72 593 l-74 590 43 248 c35 204
46 247 58 243 8 -2 47 -16 85 -29 105 -37 209 -51 338 -44 242 12 435 100 608
278 85 87 88 88 160 105 40 9 93 25 116 35 l42 18 7 -36 c4 -19 4 -83 1 -142
-10 -208 -95 -358 -275 -485 -104 -73 -202 -120 -346 -167 -128 -43 -166 -69
-166 -115 0 -31 42 -74 72 -74 37 0 252 76 351 124 130 63 210 119 298 206
173 172 247 397 220 661 -7 61 -11 112 -9 113 2 1 27 22 57 46 120 99 228 271
272 436 30 112 30 306 0 419 -41 153 -125 297 -239 408 -49 49 -49 49 -39 90
19 78 13 273 -12 367 -101 387 -444 651 -841 649 -41 0 -94 -4 -118 -8 l-42
-8 -46 87 c-56 106 -144 213 -244 298 -90 75 -277 171 -395 203 -100 26 -321
37 -421 20 -228 -39 -433 -147 -586 -309 -62 -66 -64 -67 -103 -60 -22 4 -92
7 -156 7 l-116 1 -8 88 c-15 191 -22 486 -14 662 8 179 34 407 48 422 11 12
427 28 741 28 326 0 653 -12 979 -36 117 -8 214 -14 216 -12 5 7 36 141 32
144 -6 7 -374 33 -617 44 -135 6 -444 10 -687 8 l-442 -3 -18 39 c-19 43 -78
91 -123 101 -68 15 -151 -37 -184 -117 -19 -44 -13 -42 -236 -58 -198 -14
-555 -54 -806 -89 l-197 -28 -27 31 c-102 113 -230 272 -233 290 -4 18 -4 17
-5 -4z m2897 -1366 c92 -22 254 -103 328 -164 134 -111 234 -273 288 -467 3
-8 28 -3 82 15 70 24 93 26 223 26 132 0 151 -2 212 -26 100 -38 173 -85 247
-159 77 -76 122 -148 159 -251 23 -65 26 -88 26 -203 0 -114 -3 -140 -26 -210
-15 -43 -26 -80 -25 -80 1 0 37 -27 80 -58 183 -136 277 -334 264 -556 -9
-155 -59 -278 -160 -395 l-43 -48 -33 88 c-45 122 -198 432 -227 460 -49 50
-134 16 -134 -52 0 -20 22 -75 59 -146 95 -180 199 -435 184 -449 -18 -17
-166 -59 -230 -65 -69 -7 -70 -7 -99 -53 -41 -65 -139 -162 -208 -206 -132
-84 -313 -125 -463 -105 -161 21 -293 84 -413 196 l-35 33 -55 -34 c-163 -101
-376 -139 -567 -99 -96 20 -161 45 -246 96 -59 36 -69 39 -86 27 -194 -142
-299 -182 -486 -182 -124 0 -214 21 -325 75 -114 56 -255 195 -315 310 -38 74
-42 78 -95 97 -88 32 -177 90 -261 169 -128 120 -207 258 -244 428 -24 106
-17 310 15 409 49 155 152 308 268 401 115 91 225 141 381 172 l84 17 17 85
c24 117 52 186 109 266 173 246 453 344 753 263 44 -12 80 -20 82 -18 60 87
116 156 155 192 105 99 268 183 396 206 33 6 71 13 85 15 46 8 211 -3 279 -20z"/>
<path d="M3130 4563 c-85 -24 -144 -59 -207 -125 -76 -81 -123 -190 -123 -285
0 -81 73 -121 125 -68 17 16 25 35 25 58 0 103 74 214 172 258 72 32 173 32
239 0 92 -44 169 -150 169 -234 0 -91 62 -135 124 -86 22 17 26 28 26 74 0
269 -284 480 -550 408z"/>
<path d="M4480 4566 c-84 -18 -149 -55 -215 -121 -69 -69 -108 -142 -125 -233
-13 -75 -6 -116 23 -137 29 -20 59 -19 89 5 20 15 27 32 32 77 21 188 194 310
369 259 115 -33 190 -120 211 -246 9 -54 18 -77 35 -91 44 -36 104 -15 116 40
17 78 -43 238 -120 320 -55 59 -159 115 -239 130 -73 13 -105 13 -176 -3z"/>
<path d="M6540 7170 c0 -9 5 -21 11 -27 8 -8 -15 -135 -81 -447 -50 -240 -90
-441 -88 -446 2 -6 45 189 96 433 87 419 92 446 77 473 -8 16 -15 22 -15 14z"/>
<path d="M6731 7113 c10 -38 61 -215 112 -395 66 -228 91 -330 83 -338 -7 -7
-2 -10 18 -10 18 0 27 4 24 13 -3 6 -58 189 -124 404 -65 216 -122 393 -126
393 -3 0 2 -30 13 -67z"/>
<path d="M1704 7128 l-29 -33 33 29 c17 17 32 31 32 33 0 8 -8 1 -36 -29z"/>
<path d="M1710 7033 c5 -16 46 -215 91 -443 45 -228 86 -419 92 -425 7 -7 8
-5 5 5 -3 8 -45 212 -93 453 -49 240 -92 437 -96 437 -4 0 -4 -12 1 -27z"/>
</g>
</svg>
